<svg width="135" height="180" viewBox="0 0 135 180" fill="none" xmlns="http://www.w3.org/2000/svg">
<path d="M68.5 154C99.1518 154 124 151.985 124 149.5C124 147.015 99.1518 145 68.5 145C37.8482 145 13 147.015 13 149.5C13 151.985 37.8482 154 68.5 154Z" fill="#E5E8F0"/>
<g clip-path="url(#clip0)">
<path d="M22.57 116.09L19.86 122.24L24.72 127.91L34.03 127.6L22.57 116.09Z" fill="#CE8715"/>
<path d="M115.81 53.0099L110.78 47.1699L109.39 51.9499L113.95 57.5399L115.81 53.0099Z" fill="#CE8715"/>
<path d="M110.39 50.3599H29.62C25.73 50.3599 22.64 53.5499 22.64 57.3399V122.95C22.64 126.84 25.83 129.93 29.62 129.93H110.29C114.18 129.93 117.27 126.84 117.27 122.95V57.3399C117.37 53.4499 114.18 50.3599 110.39 50.3599ZM52.55 57.5399C54.25 57.5399 55.54 58.9399 55.54 60.5299C55.54 62.2299 54.14 63.5199 52.55 63.5199C50.85 63.5199 49.56 62.1199 49.56 60.5299C49.56 58.8399 50.86 57.5399 52.55 57.5399ZM43.38 57.5399C45.08 57.5399 46.37 58.9399 46.37 60.5299C46.37 62.2299 44.97 63.5199 43.38 63.5199C41.68 63.5199 40.39 62.1199 40.39 60.5299C40.39 58.8399 41.78 57.5399 43.38 57.5399ZM34.21 57.5399C35.91 57.5399 37.2 58.9399 37.2 60.5299C37.2 62.2299 35.8 63.5199 34.21 63.5199C32.51 63.5199 31.22 62.1199 31.22 60.5299C31.21 58.8399 32.61 57.5399 34.21 57.5399Z" fill="#CE8715"/>
<path d="M105.75 45H24.98C21.09 45 18 48.19 18 51.98V117.59C18 121.48 21.19 124.57 24.98 124.57H105.65C109.54 124.57 112.63 121.48 112.63 117.59V51.98C112.73 48.09 109.54 45 105.75 45ZM47.91 52.18C49.61 52.18 50.9 53.58 50.9 55.17C50.9 56.87 49.5 58.16 47.91 58.16C46.21 58.16 44.92 56.76 44.92 55.17C44.92 53.48 46.22 52.18 47.91 52.18ZM38.74 52.18C40.44 52.18 41.73 53.58 41.73 55.17C41.73 56.87 40.33 58.16 38.74 58.16C37.04 58.16 35.75 56.76 35.75 55.17C35.75 53.48 37.15 52.18 38.74 52.18ZM29.57 52.18C31.27 52.18 32.56 53.58 32.56 55.17C32.56 56.87 31.16 58.16 29.57 58.16C27.87 58.16 26.58 56.76 26.58 55.17C26.58 53.48 27.97 52.18 29.57 52.18Z" fill="#FDB22B"/>
<path d="M109.09 45.8599C110.16 47.0899 110.8 48.6899 110.76 50.4599V116.15C110.76 120.04 107.67 123.14 103.77 123.14H23.01C21.88 123.14 20.83 122.83 19.87 122.34C21.16 123.81 23.03 124.77 25.1 124.77H105.86C109.75 124.77 112.85 121.68 112.85 117.78V52.0999C112.92 49.3499 111.35 47.0099 109.09 45.8599Z" fill="#FFEBC0"/>
<path d="M29.57 72.9101C29.57 70.1401 31.81 67.9001 34.58 67.9001H101.74C102.28 67.9001 102.79 68.0101 103.27 68.1601C102.4 66.6601 100.8 65.6401 98.95 65.6401H31.78C29.01 65.6401 26.77 67.8801 26.77 70.6501V110.79C26.77 113.02 28.24 114.89 30.25 115.54C29.83 114.8 29.56 113.96 29.56 113.05V72.9101H29.57Z" fill="#CE8715"/>
<path d="M49.61 113.59C49.72 113.59 49.95 113.59 50.07 113.59C50.87 113.48 51.68 113.02 52.14 112.33L62.59 97.9801L69.59 103.03C71.08 104.06 73.03 103.72 74.07 102.34L85.21 87.1801L87.39 88.7901C87.96 89.2501 88.77 89.2501 89.46 88.9001C90.15 88.5601 90.49 87.8701 90.49 87.0601L90.26 77.1901C90.26 76.6201 89.92 76.0401 89.46 75.5801C89 75.2401 88.31 75.1201 87.74 75.2401L78.55 78.2301C77.86 78.4601 77.29 79.0301 77.17 79.8401C77.06 80.6401 77.28 81.3301 77.97 81.7901L80.15 83.4001L70.96 96.0301L63.96 90.8601C62.47 89.8301 60.52 90.1701 59.48 91.5501L47.08 108.43C46.05 109.81 46.39 111.87 47.77 112.91C48.35 113.36 49.04 113.59 49.61 113.59Z" fill="#CE8715"/>
<path d="M46.5699 110.87C46.6799 110.87 46.9099 110.87 47.0299 110.87C47.8299 110.76 48.6399 110.3 49.0999 109.61L59.5499 95.2599L66.5499 100.31C68.0399 101.34 69.9899 101 71.0299 99.6199L82.1699 84.4599L84.3499 86.0699C84.9199 86.5299 85.7299 86.5299 86.4199 86.1799C87.1099 85.8399 87.4499 85.1499 87.4499 84.3399L87.2199 74.4699C87.2199 73.8999 86.8799 73.3199 86.4199 72.8599C85.9599 72.5199 85.2699 72.3999 84.6999 72.5199L75.5099 75.5099C74.8199 75.7399 74.2499 76.3099 74.1299 77.1199C74.0099 77.9299 74.2399 78.6099 74.9299 79.0699L77.1099 80.6799L67.9299 93.2999L60.9299 88.1299C59.4399 87.0999 57.4899 87.4399 56.4499 88.8199L44.0499 105.7C43.0199 107.08 43.3599 109.14 44.7399 110.18C45.3099 110.64 45.9999 110.87 46.5699 110.87Z" fill="#0A1252"/>
<path opacity="0.3" d="M106.73 124.77L111.51 129.83C111.51 129.83 116.56 128.84 117.18 124.1L112.83 118.4C112.82 118.39 112.63 123.77 106.73 124.77Z" fill="black"/>
<path opacity="0.3" d="M117.27 121.11L112.85 115.15V111.71L117.27 117.59V121.11Z" fill="black"/>
<path opacity="0.3" d="M117.27 85.38L112.85 79.42V75.98L117.27 81.86V85.38Z" fill="black"/>
<path opacity="0.3" d="M117.27 77.8802L112.85 71.9302V70.2402L117.27 76.1202V77.8802Z" fill="black"/>
<path opacity="0.3" d="M36.22 129.93L31.64 124.77H28.89L33.5 129.93H36.22Z" fill="black"/>
<path opacity="0.3" d="M38.74 129.93L34.62 124.77H33.29L37.47 129.93H38.74Z" fill="black"/>
<path opacity="0.3" d="M31.95 129.93L27.16 124.77H26.5L31.31 129.93H31.95Z" fill="black"/>
</g>
<defs>
<clipPath id="clip0">
<rect width="99.27" height="84.93" fill="white" transform="translate(18 45)"/>
</clipPath>
</defs>
</svg>
