<svg width="135" height="180" viewBox="0 0 135 180" fill="none" xmlns="http://www.w3.org/2000/svg">
<path d="M68.5 154C99.1518 154 124 151.985 124 149.5C124 147.015 99.1518 145 68.5 145C37.8482 145 13 147.015 13 149.5C13 151.985 37.8482 154 68.5 154Z" fill="#E5E8F0"/>
<g clip-path="url(#clip0)">
<path d="M106.515 86.6121C105.467 87.1931 104.393 87.6983 103.282 88.1278C103.395 89.315 103.459 90.5402 103.459 91.7654C103.383 113.376 85.801 130.844 64.1901 130.769C42.5792 130.705 25.1112 113.124 25.187 91.5128C25.2501 69.9019 42.8319 52.4338 64.4427 52.5096C65.6805 52.5096 66.8804 52.598 68.0803 52.7117C68.5224 51.6002 69.0403 50.5266 69.6213 49.4783C67.9035 49.2509 66.1857 49.1246 64.4554 49.0993C40.9625 49.0236 21.8525 68.0073 21.7767 91.5001C21.7009 114.993 40.672 134.103 64.1649 134.179C87.6577 134.255 106.768 115.283 106.843 91.7906C106.843 90.0476 106.73 88.3299 106.515 86.6121Z" fill="#CE8715"/>
<path d="M66.9561 135C91.1687 135 110.797 115.372 110.797 91.159C110.797 66.9465 91.1687 47.3184 66.9561 47.3184C42.7436 47.3184 23.1155 66.9465 23.1155 91.159C23.1155 115.372 42.7436 135 66.9561 135Z" fill="#CE8715"/>
<path d="M60.6029 129.367C84.1318 129.367 103.206 110.293 103.206 86.764C103.206 63.2351 84.1318 44.1611 60.6029 44.1611C37.074 44.1611 18 63.2351 18 86.764C18 110.293 37.074 129.367 60.6029 129.367Z" fill="#CE8715"/>
<path opacity="0.3" d="M99.8714 120.108L93.8719 113.25L92.3815 115.031L98.4189 121.687L99.8714 120.108Z" fill="black"/>
<path opacity="0.3" d="M97.004 123.076L91.0929 116.42L89.9309 117.569L96.1199 123.885L97.004 123.076Z" fill="black"/>
<path opacity="0.3" d="M110.254 84.2254C109.597 80.2468 108.662 77.6196 108.662 77.6196L102.726 81.6614L110.797 91.1596C110.797 91.1596 110.683 86.8273 110.254 84.2254Z" fill="black"/>
<path d="M102.726 81.6614C101.677 82.2424 100.604 82.7603 99.4923 83.1897C99.606 84.377 99.6818 85.6021 99.6818 86.8273C99.6818 108.438 82.1632 125.969 60.5523 125.969C38.9415 125.969 21.4103 108.438 21.4103 86.8273C21.4103 65.2164 38.9288 47.6978 60.5397 47.6852C61.7775 47.6852 62.9774 47.761 64.1773 47.8747C64.6194 46.7632 65.1246 45.6896 65.7056 44.6413C63.9879 44.4139 62.2701 44.3002 60.5397 44.2876C37.0469 44.2876 18 63.3345 18 86.8273C18 110.32 37.0469 129.367 60.5397 129.367C84.0326 129.367 103.079 110.32 103.079 86.8273C103.067 85.0969 102.94 83.3665 102.726 81.6614Z" fill="#FDB22B"/>
<path d="M60.5397 88.5318C61.4814 88.5318 62.2448 87.7684 62.2448 86.8267C62.2448 85.885 61.4814 85.1216 60.5397 85.1216C59.598 85.1216 58.8346 85.885 58.8346 86.8267C58.8346 87.7684 59.598 88.5318 60.5397 88.5318Z" fill="#FDB22B"/>
<path d="M92.2678 103.184C94.8949 98.1313 96.2716 92.5234 96.2716 86.827C96.2716 85.9555 96.2337 85.1092 96.1706 84.2504C81.6833 88.0143 66.8803 79.3118 63.1164 64.8246C61.9544 60.3534 61.9544 55.6548 63.1164 51.1836C62.2702 51.1204 61.4113 51.0825 60.5398 51.0825C54.8434 51.0825 49.2354 52.4593 44.1832 55.0864L46.6967 59.4439L43.7538 61.1491L41.2403 56.8042C36.9459 59.5703 33.2957 63.2331 30.517 67.5275L34.8745 70.041L33.1694 72.9839L28.8118 70.4704C26.4626 75.0174 25.1237 80.0191 24.8964 85.1345H29.9107V88.5321H24.8964C25.1237 93.6475 26.4626 98.6366 28.8118 103.184L33.1694 100.67L34.8745 103.613L30.517 106.126C33.2831 110.421 36.9459 114.071 41.2403 116.85L43.7538 112.505L46.6967 114.21L44.1832 118.568C48.7302 120.917 53.7319 122.256 58.8473 122.483V117.469H62.2449V122.483C67.3603 122.256 72.3494 120.917 76.8964 118.568L74.3829 114.21L77.3258 112.505L79.8393 116.85C84.1337 114.084 87.7839 110.421 90.5626 106.126L86.2051 103.613L87.9102 100.67L92.2678 103.184Z" fill="#FDB22B"/>
<path d="M63.5078 92.7134V113.44C63.5078 114.375 62.75 115.145 61.8027 115.145C60.8681 115.145 60.0976 114.387 60.0976 113.44V92.7134C58.6577 92.1955 57.521 91.0588 57.0031 89.6189H46.4819C45.5472 89.6189 44.7767 88.8611 44.7767 87.9138C44.7767 86.9791 45.5346 86.2086 46.4819 86.2086H57.0031C58.0893 83.1142 61.8785 81.7248 64.7962 83.771C65.8698 84.5162 66.6276 85.7034 66.8297 86.9917C67.2591 89.6315 65.7561 91.9303 63.5078 92.7134Z" fill="#CE8715"/>
<path d="M62.2448 91.6143V112.341C62.2448 113.276 61.487 114.046 60.5397 114.046C59.605 114.046 58.8345 113.288 58.8345 112.341V91.6143C57.3947 91.0964 56.2579 89.9597 55.74 88.5198H45.2188C44.2841 88.5198 43.5137 87.7619 43.5137 86.8147C43.5137 85.88 44.2715 85.1095 45.2188 85.1095H55.74C56.8263 82.015 60.6154 80.6257 63.5331 82.6718C64.6067 83.417 65.3645 84.6043 65.5666 85.8926C65.9961 88.5324 64.493 90.8312 62.2448 91.6143Z" fill="#0A1252"/>
<path d="M60.5397 88.5318C61.4814 88.5318 62.2448 87.7684 62.2448 86.8267C62.2448 85.885 61.4814 85.1216 60.5397 85.1216C59.598 85.1216 58.8346 85.885 58.8346 86.8267C58.8346 87.7684 59.598 88.5318 60.5397 88.5318Z" fill="#FDB22B"/>
<path opacity="0.3" d="M102.877 82.9873L110.771 92.7634C110.771 92.7634 110.544 95.921 110.494 96.3631C107.475 93.3823 103.079 87.5722 103.079 87.5722C103.079 87.5722 103.117 83.7578 102.877 82.9873Z" fill="black"/>
<path d="M64.1647 124.087C43.1349 126.133 24.3153 111.027 21.6755 89.9974C21.6755 90.3763 21.7134 90.7426 21.7513 91.1215C23.8354 112.657 42.9201 128.42 64.3795 126.323C85.8261 124.226 101.539 105.078 99.4545 83.5432C99.4166 83.1643 99.3535 82.8106 99.3282 82.4443C100.768 103.575 85.182 122.028 64.1647 124.087Z" fill="#FFEBC0"/>
<path d="M91.3458 33.8044C77.3385 33.7538 65.9457 45.0708 65.9078 59.0781C65.8699 73.0854 77.1743 84.4782 91.1816 84.5161C105.189 84.5539 116.582 73.2496 116.62 59.2423C116.657 45.2477 105.353 33.8675 91.3458 33.8044Z" fill="#CE8715"/>
<path d="M89.4636 85.3114C104.461 85.3114 116.619 73.1534 116.619 58.1557C116.619 43.158 104.461 31 89.4636 31C74.4659 31 62.3079 43.158 62.3079 58.1557C62.3079 73.1534 74.4659 85.3114 89.4636 85.3114Z" fill="#CE8715"/>
<path d="M89.4637 40.8896C80.0665 40.8896 72.4503 48.5059 72.4503 57.903C72.4503 67.3001 80.0665 74.9164 89.4637 74.9164C98.8608 74.9164 106.477 67.3001 106.477 57.903C106.464 48.5059 98.8608 40.9023 89.4637 40.8896Z" fill="#FDB22B"/>
<path d="M89.4637 34.0815C76.3026 34.0815 65.6425 44.7417 65.6425 57.9028C65.6425 71.0638 76.3026 81.724 89.4637 81.724C102.625 81.724 113.285 71.0638 113.285 57.9028C113.272 44.7544 102.612 34.0942 89.4637 34.0815ZM89.4637 78.3138C78.1846 78.3138 69.0401 69.1692 69.0401 57.8901C69.0401 46.6111 78.1846 37.4792 89.4637 37.4792C100.743 37.4792 109.887 46.6237 109.887 57.9028C109.875 69.1692 100.73 78.3011 89.4637 78.3138Z" fill="#FDB22B"/>
<path d="M89.4637 80.4862C76.5679 80.4862 66.0845 70.2176 65.6803 57.4229C65.6677 57.6755 65.6425 57.9154 65.6425 58.1807C65.6425 71.3417 76.3026 82.0019 89.4637 82.0019C102.625 82.0019 113.285 71.3417 113.285 58.1807C113.285 57.9281 113.26 57.6881 113.247 57.4355C112.843 70.2176 102.359 80.4862 89.4637 80.4862Z" fill="#FFEBC0"/>
<path d="M90.7266 57.4609C94.4779 57.4609 97.5218 60.4922 97.5218 64.2435C97.5218 67.3506 95.4251 70.0536 92.4191 70.824V72.7691H89.0214V70.824C86.028 70.0536 83.9313 67.3506 83.9187 64.2561H87.3163C87.3163 66.1381 88.8446 67.6538 90.7139 67.6538C92.5959 67.6538 94.1116 66.1255 94.1116 64.2561C94.1116 62.3742 92.5833 60.8585 90.7139 60.8585C86.9627 60.8585 83.9187 57.8272 83.9187 54.0759C83.9187 50.9688 86.0154 48.2659 89.0214 47.4954V45.5503H92.4191V47.4954C95.4125 48.2659 97.5092 50.9688 97.5218 54.0633H94.1242C94.1242 52.1813 92.5959 50.6657 90.7266 50.6657C88.8446 50.6657 87.329 52.194 87.329 54.0633C87.3163 55.9326 88.8446 57.4609 90.7266 57.4609Z" fill="#CE8715"/>
<path d="M89.4638 56.1982C93.215 56.1982 96.259 59.2295 96.259 62.9808C96.259 66.0879 94.1623 68.7909 91.1562 69.5613V71.5064H87.7586V69.5613C84.7652 68.7909 82.6685 66.0879 82.6559 62.9935H86.0535C86.0535 64.8754 87.5818 66.3911 89.4511 66.3911C91.3331 66.3911 92.8487 64.8628 92.8487 62.9935C92.8487 61.1115 91.3204 59.5958 89.4511 59.5958C85.6998 59.5958 82.6559 56.5645 82.6559 52.8132C82.6559 49.7061 84.7526 47.0032 87.7586 46.2327V44.2876H91.1562V46.2327C94.1497 47.0032 96.2464 49.7061 96.259 52.8006H92.8614C92.8614 50.9186 91.3331 49.403 89.4638 49.403C87.5818 49.403 86.0661 50.9313 86.0661 52.8006C86.0535 54.6699 87.5818 56.1982 89.4638 56.1982Z" fill="#FFEBC0"/>
</g>
<defs>
<clipPath id="clip0">
<rect width="98.6194" height="104" fill="white" transform="translate(18 31)"/>
</clipPath>
</defs>
</svg>
