<svg width="135" height="180" viewBox="0 0 135 180" fill="none" xmlns="http://www.w3.org/2000/svg">
<path d="M68.5 154C99.1518 154 124 151.985 124 149.5C124 147.015 99.1518 145 68.5 145C37.8482 145 13 147.015 13 149.5C13 151.985 37.8482 154 68.5 154Z" fill="#E5E8F0"/>
<g clip-path="url(#clip0)">
<path d="M67 27.9284C67.9179 27.9284 68.6547 27.1823 68.6547 26.2797V19.6609C68.6547 18.7463 67.9059 18.0122 67 18.0122C66.0942 18.0122 65.3453 18.7583 65.3453 19.6609V26.2797C65.3453 27.1823 66.0821 27.9284 67 27.9284Z" fill="#CE8715"/>
<path d="M80.9742 30.8409C81.8196 31.1899 82.7859 30.7928 83.1482 29.9504L85.8416 23.488C86.1918 22.6457 85.7933 21.6709 84.9478 21.3219C84.1024 20.9729 83.1241 21.37 82.7738 22.2124L80.0804 28.6748C79.7301 29.5292 80.1287 30.492 80.9742 30.8409Z" fill="#CE8715"/>
<path d="M94.2358 38.9637C94.6827 38.9637 95.1054 38.7952 95.4073 38.4823L100.383 33.5122C101.024 32.8624 101.024 31.8154 100.371 31.1776C99.7192 30.5398 98.6805 30.5398 98.0283 31.1776L93.0521 36.1477C92.3999 36.7976 92.412 37.8445 93.0521 38.4823C93.3662 38.7952 93.7889 38.9637 94.2358 38.9637Z" fill="#CE8715"/>
<path d="M102.823 51.0944C103.041 51.0944 103.258 51.0462 103.463 50.962L109.985 48.2302C110.831 47.8692 111.229 46.9064 110.867 46.0641C110.505 45.2217 109.539 44.8366 108.693 45.1856L102.171 47.9173C101.326 48.2783 100.927 49.2411 101.289 50.0835C101.555 50.6972 102.159 51.0944 102.823 51.0944Z" fill="#CE8715"/>
<path d="M50.8518 29.9504C51.2021 30.7928 52.1804 31.1899 53.0258 30.8409C53.8713 30.492 54.2699 29.5292 53.9196 28.6748L51.2383 22.2124C50.888 21.37 49.9097 20.9729 49.0643 21.3219C48.2188 21.6709 47.8202 22.6336 48.1705 23.488L50.8518 29.9504Z" fill="#CE8715"/>
<path d="M39.7763 38.9637C40.6942 38.9637 41.431 38.2175 41.431 37.3029C41.431 36.8697 41.2619 36.4485 40.9478 36.1356L35.9717 31.1655C35.3195 30.5157 34.2687 30.5277 33.6286 31.1655C32.9885 31.8153 32.9885 32.8503 33.6286 33.5001L38.6047 38.4703C38.9067 38.7952 39.3294 38.9637 39.7763 38.9637Z" fill="#CE8715"/>
<path d="M31.829 47.9169L25.3069 45.1852C24.4614 44.8362 23.4831 45.2333 23.1329 46.0757C22.7826 46.9181 23.1691 47.8808 24.0146 48.2419L30.5367 50.9736C31.3821 51.3226 32.3604 50.9375 32.7107 50.0951C33.0609 49.2407 32.6624 48.2659 31.829 47.9169Z" fill="#CE8715"/>
<path d="M79.6336 117.992H56.2023C54.91 117.992 53.8592 119.039 53.8592 120.327C53.8592 121.614 54.91 122.661 56.2023 122.661H79.6215C80.9138 122.661 81.9646 121.614 81.9646 120.327C81.9767 119.039 80.9259 117.992 79.6336 117.992Z" fill="#CE8715"/>
<path d="M74.9473 127.331H60.8885C59.5962 127.331 58.5454 128.378 58.5454 129.665C58.5454 130.953 59.5962 132 60.8885 132H74.9473C76.2396 132 77.2904 130.953 77.2904 129.665C77.2904 128.378 76.2396 127.331 74.9473 127.331Z" fill="#CE8715"/>
<path d="M99.2965 65.3546C98.7651 52.4179 90.8902 42.0203 78.2325 37.5677C75.1164 36.4244 71.8674 35.8227 68.6306 35.7505H67.7851C64.5482 35.8227 61.2992 36.4124 58.1831 37.5677C45.5254 42.0203 37.6506 52.4058 37.1192 65.3546C36.7206 74.994 41.6967 82.2025 46.081 88.5566L46.552 89.2425C49.4266 93.3943 52.3857 97.6785 53.0862 102.42C53.3036 104.225 53.4244 106.042 53.4486 107.859C53.4244 108.942 53.8351 110.002 54.596 110.784C55.3206 111.494 56.299 111.891 57.3135 111.891H67.0967H67.773H68.6185H69.5847H79.078C80.0925 111.903 81.0708 111.506 81.7955 110.784C82.5564 110.002 82.9671 108.955 82.9429 107.859C82.9671 106.042 83.0879 104.225 83.3053 102.42C83.9937 97.6785 86.9649 93.3943 89.8394 89.2425L90.3105 88.5566C94.7189 82.1905 99.6951 74.982 99.2965 65.3546ZM87.605 86.6792L87.134 87.3652C84.187 91.6133 80.8534 96.439 80.0442 101.951C79.8027 103.912 79.6698 105.898 79.6456 107.871C79.6577 108.076 79.5973 108.281 79.4645 108.437C79.3679 108.533 79.235 108.569 79.1021 108.557H75.9739H70.2732H66.1667H62.2051H57.3377C57.2048 108.569 57.0719 108.521 56.9753 108.437C56.8425 108.281 56.77 108.076 56.7942 107.871C56.77 105.886 56.6371 103.912 56.3956 101.951C55.5864 96.439 52.2528 91.6253 49.3058 87.3652L48.8348 86.6792C44.7404 80.7464 40.1024 74.0192 40.4527 65.487C40.9237 53.9462 47.9772 44.6799 59.3064 40.6845C62.036 39.7097 64.8985 39.1923 67.7972 39.096H68.6426C71.5413 39.1923 74.4038 39.7097 77.1334 40.6845C88.4626 44.6678 95.5161 53.9462 95.9871 65.487C96.3374 74.0192 91.6874 80.7464 87.605 86.6792Z" fill="#CE8715"/>
<path d="M95.5161 64.5125C95.0088 52.1413 87.4721 42.2131 75.37 37.9409C72.3868 36.8458 69.2948 36.2682 66.1908 36.208H65.3936C62.2896 36.2802 59.1976 36.8458 56.2144 37.9409C44.1123 42.201 36.5877 52.1293 36.0684 64.5125C35.6939 73.7306 40.4406 80.6142 44.6437 86.6915L45.1027 87.3534C47.8444 91.3126 50.6827 95.4163 51.347 99.9532C51.5523 101.674 51.6731 103.407 51.6972 105.152C51.6731 106.187 52.0717 107.198 52.7963 107.944C53.4848 108.63 54.4148 109.003 55.3931 109.003H64.7535H65.4057H66.2149H67.1449H76.2276C77.1938 109.015 78.1359 108.63 78.8243 107.944C79.549 107.198 79.9476 106.187 79.9234 105.152C79.9476 103.419 80.0563 101.686 80.2737 99.9532C80.938 95.4163 83.7763 91.3246 86.518 87.3534L86.977 86.6915C91.1438 80.6262 95.9026 73.7306 95.5161 64.5125Z" fill="#FDB22B"/>
<path d="M78.2567 115.658H54.8254C53.5331 115.658 52.4823 116.705 52.4823 117.992C52.4823 119.28 53.5331 120.327 54.8254 120.327H78.2446C79.5369 120.327 80.5877 119.28 80.5877 117.992C80.5998 116.705 79.549 115.658 78.2567 115.658Z" fill="#FDB22B"/>
<path d="M73.5704 124.996H59.5116C58.2193 124.996 57.1685 126.043 57.1685 127.331C57.1685 128.618 58.2193 129.665 59.5116 129.665H73.5704C74.8627 129.665 75.9135 128.618 75.9135 127.331C75.9135 126.043 74.8627 124.996 73.5704 124.996Z" fill="#FDB22B"/>
<path d="M96.8808 64.1515C96.3494 51.2147 88.4746 40.8172 75.8169 36.3645C72.7008 35.2213 69.4518 34.6196 66.2149 34.5474H65.3694C62.1326 34.6196 58.8836 35.2092 55.7675 36.3645C43.1098 40.8172 35.2349 51.2027 34.7035 64.1515C34.3049 73.7909 39.2811 80.9994 43.6654 87.3534L44.1364 88.0394C47.011 92.1912 49.97 96.4754 50.6706 101.217C50.888 103.022 51.0088 104.839 51.0329 106.656C51.0088 107.739 51.4194 108.798 52.1803 109.581C52.905 110.291 53.8833 110.688 54.8979 110.688H64.681H65.3574H66.2028H67.1691H76.6623C77.6769 110.7 78.6552 110.303 79.3799 109.581C80.1408 108.798 80.5514 107.751 80.5273 106.656C80.5514 104.839 80.6722 103.022 80.8896 101.217C81.5781 96.4754 84.5492 92.1912 87.4238 88.0394L87.8948 87.3534C92.3033 80.9874 97.2794 73.7789 96.8808 64.1515ZM85.1894 85.4761L84.7183 86.1621C81.7713 90.4101 78.4378 95.2358 77.6286 100.748C77.387 102.709 77.2542 104.695 77.23 106.668C77.2421 106.873 77.1817 107.077 77.0488 107.234C76.9522 107.33 76.8193 107.366 76.6865 107.354H73.5583H67.8575H63.751H59.7894H54.922C54.7892 107.366 54.6563 107.318 54.5597 107.234C54.4268 107.077 54.3543 106.873 54.3785 106.668C54.3543 104.683 54.2215 102.709 53.9799 100.748C53.1707 95.2358 49.8372 90.4222 46.8902 86.1621L46.4191 85.4761C42.3247 79.5432 37.6868 72.8161 38.037 64.2839C38.5081 52.7431 45.5616 43.4767 56.8907 39.4814C59.6203 38.5066 62.4828 37.9891 65.3815 37.8929H66.227C69.1257 37.9891 71.9882 38.5066 74.7178 39.4814C86.0469 43.4647 93.1004 52.7431 93.5715 64.2839C93.9217 72.8161 89.2717 79.5432 85.1894 85.4761Z" fill="#CE8715"/>
<path d="M72.8095 74.4165C73.3168 74.7054 73.9448 74.7054 74.4521 74.4165L80.2616 71.1071C81.0588 70.6498 81.3365 69.639 80.8776 68.8447C80.4186 68.0504 79.4041 67.7737 78.6069 68.231L73.6308 71.071L68.6426 68.231C68.4011 68.0865 68.1233 68.0504 67.8455 68.0384V68.0143H66.1666V68.0384C65.8888 68.0384 65.611 68.0865 65.3574 68.231L60.3692 71.071L55.3931 68.231C54.596 67.7737 53.5814 68.0504 53.1224 68.8447C52.6635 69.639 52.9413 70.6498 53.7384 71.1071L59.5479 74.4165C60.0552 74.7054 60.6832 74.7054 61.1905 74.4165L64.9347 72.2865V108.558H69.0412V72.2865L72.8095 74.4165Z" fill="#CE8715"/>
<path d="M62.7727 39.6377C62.7727 39.6377 46.6486 43.2359 41.431 57.4122C43.8828 58.6517 46.6486 60.0236 46.6486 60.0236C46.6486 60.0236 49.5353 45.8473 62.7727 39.6377Z" fill="#FFEBC0"/>
<path d="M46.1534 61.504L40.9358 58.8564C40.9358 58.8564 39.8488 61.7687 39.8488 64.344C41.8175 65.3188 45.0664 66.8111 45.0664 66.8111C45.0664 66.8111 45.6583 62.9721 46.1534 61.504Z" fill="#FFEBC0"/>
<path opacity="0.3" d="M77.23 106.668C77.2421 106.873 77.1817 107.077 77.0489 107.234C76.9523 107.33 76.8194 107.366 76.6865 107.354H74.8145L78.9934 111.867C79.3316 111.867 79.9355 111.891 80.6964 111.53C80.8776 111.446 81.1675 111.301 81.2158 111.241L77.23 106.62C77.23 106.644 77.23 106.656 77.23 106.668Z" fill="black"/>
<path opacity="0.3" d="M77.6286 100.735C77.4354 102.288 77.3388 103.852 77.2784 105.417L82.025 110.519C82.3874 110.086 82.8342 109.388 82.9309 108.437C82.955 107.39 82.9671 106.861 83.0275 105.79L77.7736 100.025C77.7253 100.266 77.6649 100.495 77.6286 100.735Z" fill="black"/>
<path opacity="0.3" d="M88.5591 80.3974L92.8951 84.7658L94.2599 82.5876L89.9602 77.9785L88.5591 80.3974Z" fill="black"/>
<path opacity="0.3" d="M87.9432 81.3721L92.255 85.7285L91.796 86.4264L87.291 82.3709L87.9432 81.3721Z" fill="black"/>
<path d="M71.4326 73.2129C71.9399 73.5017 72.5679 73.5017 73.0752 73.2129L78.8847 69.9035C79.6819 69.4462 79.9597 68.4353 79.5007 67.6411C79.0417 66.8468 78.0272 66.57 77.23 67.0273L72.2539 69.8674L67.2657 67.0273C67.0242 66.8829 66.7464 66.8468 66.4686 66.8348V66.8107H64.7897V66.8348C64.5119 66.8348 64.2342 66.8829 63.9805 67.0273L58.9923 69.8674L54.0162 67.0273C53.2191 66.57 52.2045 66.8468 51.7456 67.6411C51.2866 68.4353 51.5644 69.4462 52.3615 69.9035L58.171 73.2129C58.6783 73.5017 59.3064 73.5017 59.8136 73.2129L63.5578 71.0829V107.354H67.6643V71.0829L71.4326 73.2129Z" fill="#0A1252"/>
</g>
<defs>
<clipPath id="clip0">
<rect width="88" height="114" fill="white" transform="translate(23 18)"/>
</clipPath>
</defs>
</svg>
