<svg width="135" height="180" viewBox="0 0 135 180" fill="none" xmlns="http://www.w3.org/2000/svg">
<path d="M68.5 154C99.1518 154 124 151.985 124 149.5C124 147.015 99.1518 145 68.5 145C37.8482 145 13 147.015 13 149.5C13 151.985 37.8482 154 68.5 154Z" fill="#E5E8F0"/>
<g clip-path="url(#clip0)">
<path d="M29.8747 83.5629L36.1352 91.4097L44.7064 83.5629L39.9864 78.8706L29.8747 83.5629Z" fill="#CE8715"/>
<path d="M41.2503 100.223L34.496 91.4097L30.5461 97.7581L35.8982 104.678L41.2503 100.223Z" fill="#CE8715"/>
<path d="M113.928 64.853L122.203 75.1643L113.928 87.1711L107.608 80.5466L113.928 64.853Z" fill="#CE8715"/>
<path d="M96.6077 29.7593L104.705 39.7945L94.9685 49.9086L96.6077 29.7593Z" fill="#CE8715"/>
<path d="M74.6662 33.0515L66.49 22.8389L62.8956 27.9452L70.1238 39.7943L74.6662 33.0515Z" fill="#CE8715"/>
<path d="M120.445 73.5081C116.673 70.8859 111.479 71.7928 108.833 75.5585L102.611 84.4699L107.233 46.8526C107.786 42.2983 104.547 38.1383 99.9848 37.5863C95.4227 37.0343 91.2556 40.2676 90.7026 44.8219L87.602 70.0776L76.0091 35.5359C74.5477 31.1787 69.8276 28.8326 65.463 30.2915C61.0984 31.7505 58.7482 36.4625 60.2097 40.8196L70.0251 70.0973C64.3768 69.1706 58.4322 69.5452 52.6457 71.4774C46.6814 73.4686 41.3096 76.9977 37.1227 81.6703C34.0615 85.1008 34.3578 90.3452 37.7942 93.4208C41.2306 96.4767 46.5036 96.181 49.5648 92.7505C51.8162 90.2466 54.7193 88.3342 57.9385 87.2498C68.1884 83.839 79.3073 89.3594 82.7239 99.5918C86.1603 109.824 80.6107 120.924 70.3608 124.335C60.1109 127.746 48.992 122.225 45.5754 111.993C44.9829 110.218 44.6472 108.365 44.5682 106.532C44.3904 101.938 40.5196 98.3694 35.918 98.5271C31.3164 98.7243 27.722 102.589 27.8998 107.182C28.038 110.613 28.6502 114.024 29.7562 117.296C36.0957 136.223 56.6745 146.456 75.6339 140.127C84.8173 137.051 91.9666 130.644 96.1535 122.718C96.193 122.679 96.2325 122.62 96.2522 122.58L122.499 85.0811C125.145 81.3154 124.217 76.1302 120.445 73.5081Z" fill="#CE8715"/>
<path d="M112.546 63.6502C108.774 61.028 103.58 61.9349 100.934 65.7006L94.7127 74.612L99.334 36.9947C99.887 32.4404 96.6481 28.2804 92.086 27.7284C87.5239 27.1763 83.3568 30.4097 82.8038 34.964L79.7032 60.2197L68.1103 25.678C66.6489 21.3208 61.9288 18.9747 57.5642 20.4336C53.1996 21.8926 50.8494 26.6046 52.3109 30.9617L62.1263 60.2394C56.478 59.3127 50.5334 59.6873 44.7469 61.6195C38.7826 63.6107 33.4107 67.1398 29.2239 71.8124C26.1627 75.2429 26.459 80.4873 29.8954 83.5629C33.3317 86.6188 38.6048 86.3231 41.666 82.8926C43.9174 80.3887 46.8205 78.4763 50.0397 77.3919C60.2896 73.9811 71.4085 79.5015 74.8251 89.7339C78.2615 99.9663 72.7119 111.066 62.462 114.477C52.2121 117.888 41.0932 112.367 37.6766 102.135C37.0841 100.361 36.7484 98.5073 36.6694 96.6738C36.4916 92.08 32.6208 88.5115 28.0192 88.6692C23.4176 88.8664 19.8232 92.7306 20.0009 97.3244C20.1392 100.755 20.7514 104.166 21.8574 107.438C28.1969 126.365 48.7757 136.598 67.7351 130.269C76.9185 127.193 84.0678 120.786 88.2547 112.86C88.2942 112.821 88.3337 112.762 88.3534 112.722L114.6 75.2232C117.247 71.4575 116.318 66.2723 112.546 63.6502Z" fill="#FDB22B"/>
<path d="M62.8956 62.4478C62.8956 62.4478 44.8842 57.1443 29.7562 73.6856C28.9465 74.9672 30.2302 75.2826 30.8819 75.1249C32.0076 74.3165 42.9488 59.2341 62.8956 62.4478Z" fill="#FFEBC0"/>
<path d="M92.638 29.8578C92.638 29.8578 85.074 28.2411 83.9483 38.5129C82.8226 48.7848 81.3809 59.7072 81.3809 59.7072C81.3809 59.7072 84.6791 41.5097 85.9233 36.5611C86.5947 33.8798 88.6684 30.745 92.638 29.8578Z" fill="#FFEBC0"/>
<path d="M58.5507 21.4985C58.5507 21.4985 52.1124 24.929 54.2651 31.9872C56.8325 40.1298 63.3893 58.1104 63.3893 58.1104L56.8325 29.8579C56.8325 29.8579 55.2921 24.5347 58.5507 21.4985Z" fill="#FFEBC0"/>
<path d="M94.9685 76.4065L102.69 66.1347C102.69 66.1347 107.035 60.91 112.269 65.3263C110.175 64.6954 104.942 63.1576 94.9685 76.4065Z" fill="#FFEBC0"/>
<path opacity="0.3" d="M93.5071 127.017L85.0346 117.928L82.8029 120.57L91.7099 129.284L93.5071 127.017Z" fill="black"/>
<path opacity="0.3" d="M95.5215 123.881L86.9306 115.167L85.7456 116.961L94.2773 125.932L95.5215 123.881Z" fill="black"/>
<path opacity="0.3" d="M123.19 83.9177L115.054 74.5923L113.059 77.451L121.926 85.9287C121.926 85.9287 122.42 85.3175 122.697 84.8444C122.953 84.3515 123.19 83.9177 123.19 83.9177Z" fill="black"/>
<path opacity="0.3" d="M109.188 104.087L100.538 95.333L98.8788 97.7186L107.845 106.058C107.845 106.058 108.181 105.565 108.576 105.013C108.912 104.54 109.188 104.087 109.188 104.087Z" fill="black"/>
<path d="M57.8793 98.9809H59.6567C60.2887 98.9809 60.9009 99.2569 61.3551 99.6907C61.8094 100.144 61.9871 100.755 61.8884 101.465C61.7896 102.628 60.7232 103.516 59.4789 103.516H57.0695C56.3586 103.516 55.8253 103.062 55.6476 102.352C55.5488 101.899 55.1933 101.643 54.6601 101.643H51.8952C51.6187 101.643 51.362 101.741 51.1842 101.997C51.0065 102.175 50.9077 102.451 50.9077 102.707C51.1842 105.566 53.4159 107.794 56.1808 108.149V110.475C56.1808 111.007 56.635 111.461 57.1683 111.461H59.8542C60.3874 111.461 60.8417 111.007 60.8417 110.475V107.971C63.8831 107.34 66.1937 104.856 66.4702 101.899C66.648 99.9273 66.016 98.0543 64.6928 96.5559C63.3498 95.1364 61.4736 94.2295 59.5184 94.2295H57.4645C56.8325 94.2295 56.2203 93.9535 55.7661 93.5197C55.3118 93.0663 55.1341 92.4551 55.2328 91.7453C55.3316 90.5821 56.3981 89.6949 57.6423 89.6949H60.0517C60.7627 89.6949 61.2959 90.1483 61.4736 90.8581C61.5724 91.3116 61.9279 91.5679 62.4611 91.5679H65.226C65.5025 91.5679 65.7592 91.4693 65.937 91.213C66.1147 91.0355 66.2135 90.7595 66.2135 90.5032C65.937 87.6445 63.7053 85.4166 60.9404 85.0617V82.7353C60.9404 82.203 60.4862 81.7495 59.9529 81.7495H57.267C56.7338 81.7495 56.2796 82.203 56.2796 82.7353V85.1406C52.8037 85.7715 50.2955 89.064 50.651 92.6325C51.0065 96.2207 54.2059 98.9809 57.8793 98.9809Z" fill="#CE8715"/>
<path d="M55.5093 97.7583H57.2868C57.9187 97.7583 58.531 98.0343 58.9852 98.468C59.4394 98.9215 59.6172 99.5327 59.5184 100.242C59.4197 101.406 58.3532 102.293 57.109 102.293H54.6996C53.9886 102.293 53.4554 101.839 53.2776 101.13C53.1789 100.676 52.8234 100.42 52.2902 100.42H49.5253C49.2488 100.42 48.992 100.518 48.8143 100.775C48.6366 100.952 48.5378 101.228 48.5378 101.485C48.8143 104.343 51.046 106.571 53.8109 106.926V109.252C53.8109 109.785 54.2651 110.238 54.7983 110.238H57.4843C58.0175 110.238 58.4717 109.785 58.4717 109.252V106.749C61.5131 106.118 63.8238 103.634 64.1003 100.676C64.278 98.7046 63.646 96.8316 62.3228 95.3333C60.9799 93.9137 59.1037 93.0068 57.1485 93.0068H55.0946C54.4626 93.0068 53.8504 92.7308 53.3961 92.2971C52.9419 91.8436 52.7642 91.2324 52.8629 90.5227C52.9617 89.3594 54.0281 88.4722 55.2723 88.4722H57.6817C58.3927 88.4722 58.926 88.9257 59.1037 89.6355C59.2024 90.0889 59.5579 90.3452 60.0912 90.3452H62.8561C63.1326 90.3452 63.3893 90.2466 63.567 89.9903C63.7448 89.8129 63.8435 89.5369 63.8435 89.2806C63.5671 86.4218 61.3354 84.194 58.5705 83.8391V81.5126C58.5705 80.9803 58.1162 80.5269 57.583 80.5269H54.8971C54.3639 80.5269 53.9096 80.9803 53.9096 81.5126V83.9179C50.4337 84.5488 47.9256 87.8413 48.2811 91.4099C48.6366 94.9981 51.8557 97.7583 55.5093 97.7583Z" fill="#0A1252"/>
</g>
<defs>
<clipPath id="clip0">
<rect width="104" height="122" fill="white" transform="translate(20 20)"/>
</clipPath>
</defs>
</svg>
